<mxfile host="drawio-plugin" modified="2022-04-10T09:23:53.395Z" agent="5.0 (Macintosh; Intel Mac OS X 12_3_1) AppleWebKit/537.36 (KHTML, like Gecko) Chrome/89.0.4389.114 Safari/537.36" version="15.5.4" etag="QZBmShb6BHGsw-vb-U6J" type="embed"><diagram id="j0ogJRRoy11DumkZfNy1" name="Page-1"><mxGraphModel dx="891" dy="601" grid="1" gridSize="10" guides="1" tooltips="1" connect="1" arrows="1" fold="1" page="1" pageScale="1" pageWidth="850" pageHeight="1100" math="0" shadow="0"><root><mxCell id="0"/><mxCell id="1" parent="0"/><mxCell id="2" value="" style="whiteSpace=wrap;html=1;aspect=fixed;" vertex="1" parent="1"><mxGeometry x="280" y="120" width="360" height="360" as="geometry"/></mxCell><mxCell id="3" value="" style="whiteSpace=wrap;html=1;aspect=fixed;" vertex="1" parent="1"><mxGeometry x="345" y="180" width="230" height="230" as="geometry"/></mxCell><mxCell id="4" value="" style="whiteSpace=wrap;html=1;aspect=fixed;" vertex="1" parent="1"><mxGeometry x="410" y="250" width="100" height="100" as="geometry"/></mxCell><mxCell id="5" value="&lt;font style=&quot;font-size: 18px&quot;&gt;Process&lt;/font&gt;" style="text;html=1;strokeColor=none;fillColor=none;align=center;verticalAlign=middle;whiteSpace=wrap;rounded=0;" vertex="1" parent="1"><mxGeometry x="425" y="130" width="60" height="30" as="geometry"/></mxCell><mxCell id="7" value="&lt;font style=&quot;font-size: 18px&quot;&gt;Thread&lt;/font&gt;" style="text;html=1;strokeColor=none;fillColor=none;align=center;verticalAlign=middle;whiteSpace=wrap;rounded=0;" vertex="1" parent="1"><mxGeometry x="425" y="200" width="60" height="30" as="geometry"/></mxCell><mxCell id="8" value="&lt;font style=&quot;font-size: 14px&quot;&gt;Event Loop&lt;/font&gt;" style="text;html=1;strokeColor=none;fillColor=none;align=center;verticalAlign=middle;whiteSpace=wrap;rounded=0;" vertex="1" parent="1"><mxGeometry x="420" y="280" width="60" height="30" as="geometry"/></mxCell></root></mxGraphModel></diagram></mxfile>